<?xml version="1.0" standalone="no"?>
<!DOCTYPE svg PUBLIC "-//W3C//DTD SVG 20010904//EN"
 "http://www.w3.org/TR/2001/REC-SVG-20010904/DTD/svg10.dtd">
<svg version="1.0" xmlns="http://www.w3.org/2000/svg"
 width="1196.000000pt" height="1198.000000pt" viewBox="0 0 1196.000000 1198.000000"
 preserveAspectRatio="xMidYMid meet">
<metadata>
Created by potrace 1.15, written by Peter Selinger 2001-2017
</metadata>
<g transform="translate(0.000000,1198.000000) scale(0.100000,-0.100000)"
fill="#000000" stroke="none">
<path d="M5110 11963 c-123 -7 -515 -45 -665 -64 -1051 -133 -2241 -445 -3135
-822 -783 -330 -1141 -621 -1264 -1028 -49 -161 -43 -292 99 -2139 115 -1486
222 -2716 311 -3570 101 -971 148 -1253 254 -1521 155 -391 436 -698 776 -847
39 -17 130 -61 202 -97 73 -36 134 -65 136 -65 2 0 124 -59 272 -131 148 -72
314 -153 369 -179 55 -26 208 -101 340 -165 132 -64 299 -145 370 -180 127
-61 522 -255 1120 -550 165 -81 402 -201 527 -267 327 -172 507 -246 733 -299
128 -30 548 -39 716 -14 284 41 491 116 879 319 124 64 358 183 520 263 404
200 936 461 1105 543 77 37 235 114 350 170 116 56 282 137 370 180 88 43 237
115 330 160 296 144 477 231 575 276 244 115 354 187 492 326 238 241 392 551
468 945 58 301 154 1146 240 2118 11 127 27 302 35 390 39 422 128 1520 231
2855 49 625 57 773 61 1072 5 337 4 350 -17 420 -58 191 -202 393 -385 538
-166 132 -505 320 -805 447 -1159 490 -2607 830 -3895 913 -142 9 -1569 12
-1715 3z m1095 -1418 c159 -47 273 -122 374 -250 66 -83 132 -205 152 -284 7
-28 16 -51 20 -51 3 0 31 11 62 25 95 42 206 59 295 46 85 -12 192 -59 256
-112 109 -91 225 -285 253 -423 36 -182 -33 -322 -242 -491 -190 -154 -275
-279 -321 -472 -20 -81 -22 -271 -6 -357 7 -33 10 -61 8 -63 -13 -13 -226 -24
-371 -19 -369 12 -702 84 -995 214 -100 44 -212 101 -199 102 3 0 45 -14 95
-31 326 -111 715 -166 994 -140 135 13 333 53 357 72 7 7 12 17 10 24 -9 21
12 250 28 308 31 119 55 157 178 287 189 199 269 338 283 488 17 177 -114 406
-273 479 -118 54 -271 41 -417 -37 -32 -17 -60 -29 -62 -27 -3 2 -9 31 -14 64
-13 77 -41 158 -82 234 -79 149 -212 246 -413 300 -77 21 -343 19 -424 -4
-217 -60 -358 -207 -411 -428 -11 -46 -20 -117 -20 -156 0 -40 -2 -73 -4 -73
-2 0 -33 13 -68 30 -143 64 -294 85 -404 56 -143 -38 -268 -154 -330 -306 -67
-165 -47 -335 56 -485 98 -142 294 -263 483 -295 l66 -12 17 -56 c30 -105 45
-216 43 -336 -1 -103 1 -120 16 -129 84 -47 464 -155 660 -188 l110 -19 -132
5 c-226 8 -441 43 -624 101 -67 21 -151 56 -167 69 -1 1 5 22 14 46 33 93 46
157 47 239 1 72 -2 93 -24 140 l-26 56 -108 23 c-416 87 -637 330 -597 656 37
295 201 505 438 561 90 21 290 14 385 -13 l65 -19 11 90 c32 262 166 448 385
535 40 16 100 34 133 40 33 6 71 13 85 15 14 3 79 3 145 1 92 -3 141 -10 210
-30z m-110 -260 c88 -23 152 -62 231 -140 73 -73 134 -166 178 -270 27 -63 25
-61 -38 38 -60 93 -178 207 -266 255 -97 54 -174 79 -291 96 l-94 13 45 10
c67 16 168 15 235 -2z m-4949 -220 c103 -51 161 -164 152 -300 -6 -88 -31
-134 -91 -169 -117 -68 -348 -56 -430 22 -50 47 -61 79 -61 172 0 67 5 96 22
135 25 54 81 118 124 141 80 42 198 41 284 -1z m9931 10 c53 -22 118 -89 143
-147 27 -63 36 -160 20 -218 -15 -56 -80 -123 -135 -140 -65 -19 -172 -24
-245 -11 -136 25 -200 95 -200 222 0 80 14 131 51 190 55 87 152 133 266 124
34 -2 79 -11 100 -20z m-5539 -778 c-5 -99 -26 -161 -74 -225 -14 -18 -24 -36
-21 -38 13 -14 194 -86 283 -113 300 -92 605 -89 871 9 81 30 211 98 282 147
35 24 65 42 68 40 8 -8 -142 -138 -217 -188 -382 -257 -796 -248 -1205 24 -33
22 -70 49 -82 60 -22 19 -22 19 -53 -3 -48 -34 -145 -61 -240 -66 l-85 -4 52
19 c82 31 184 87 235 131 62 54 132 161 155 238 10 34 22 62 27 62 5 0 7 -42
4 -93z m174 -1661 c72 -17 108 -40 108 -69 0 -27 -31 -117 -41 -117 -4 0 -23
16 -43 36 -47 47 -76 44 -95 -11 -22 -58 -20 -363 2 -470 10 -44 17 -86 17
-92 0 -9 -21 -13 -70 -13 -67 0 -71 1 -82 28 -18 43 -14 327 6 461 24 153 13
161 -104 75 -33 -24 -62 -44 -65 -44 -9 0 -3 83 9 135 9 39 17 53 39 63 65 31
225 40 319 18z m325 -23 c-2 -16 -14 -64 -26 -107 -32 -122 -26 -170 20 -146
12 7 57 15 98 19 l76 6 -2 41 c-1 23 -15 76 -32 119 -16 43 -28 82 -25 87 9
14 120 9 133 -5 17 -21 39 -133 52 -267 11 -122 7 -406 -6 -443 -6 -14 -20
-17 -82 -17 -86 0 -80 -14 -44 115 11 39 20 102 20 142 1 67 -1 74 -24 89 -48
31 -150 -1 -185 -59 -25 -40 -26 -128 -5 -210 8 -32 15 -62 15 -68 0 -6 -29
-9 -72 -7 l-73 3 -8 65 c-17 137 10 615 37 659 4 6 36 11 73 11 l65 0 -5 -27z
m783 5 c0 -23 -45 -128 -54 -128 -3 0 -20 9 -38 20 -66 40 -147 18 -174 -47
-17 -41 -18 -64 -1 -87 12 -17 15 -16 65 3 55 22 117 28 127 12 5 -9 -36 -136
-48 -148 -4 -3 -19 -1 -36 5 -42 15 -82 1 -108 -38 -43 -62 -19 -167 42 -190
33 -13 94 1 133 29 17 11 35 21 40 21 12 0 62 -122 62 -150 0 -19 -7 -20 -205
-20 l-205 0 -1 103 c0 56 0 134 1 172 2 122 40 430 57 458 2 4 80 7 174 7 169
0 169 0 169 -22z m3368 -1230 l-3 -93 -4200 0 -4200 0 -3 93 -3 92 4206 0
4206 0 -3 -92z m-6103 -306 c166 -85 312 -316 390 -619 110 -421 67 -792 -111
-970 -105 -105 -235 -141 -475 -130 -200 9 -281 37 -376 133 -58 58 -110 156
-139 259 -22 81 -30 345 -14 473 29 235 119 500 221 649 44 64 135 160 180
188 101 65 219 71 324 17z m3943 -2 c198 -106 373 -441 427 -820 21 -153 19
-364 -5 -473 -48 -218 -163 -356 -335 -404 -72 -20 -283 -28 -390 -14 -259 33
-401 207 -436 536 -38 360 106 857 313 1076 100 105 175 141 288 136 62 -3 86
-9 138 -37z m1272 5 c120 -61 251 -231 326 -426 81 -208 113 -363 121 -584 8
-242 -27 -398 -122 -530 -48 -68 -138 -136 -203 -155 -134 -38 -407 -39 -520
-1 -81 28 -126 56 -183 118 -154 164 -198 497 -117 873 78 361 251 644 443
720 73 29 181 23 255 -15z m-6717 -7 c2 -7 -4 -48 -14 -92 -45 -186 -62 -320
-63 -473 -1 -188 4 -197 70 -128 122 127 279 425 346 655 l13 45 134 3 134 3
-6 -73 c-10 -133 -74 -277 -213 -481 -46 -67 -84 -126 -84 -132 0 -5 31 -57
70 -114 137 -204 213 -388 250 -605 23 -133 26 -266 8 -284 -18 -18 -278 -17
-302 1 -16 12 -20 36 -27 153 -8 143 -15 190 -45 309 -38 153 -109 285 -152
285 -35 0 -127 -97 -163 -172 -34 -72 -35 -56 9 -366 33 -237 42 -222 -130
-222 -138 0 -150 6 -167 92 -40 194 -41 1075 -1 1383 13 99 37 184 57 208 14
14 35 17 143 17 93 0 129 -3 133 -12z m3940 0 c2 -7 -5 -45 -15 -85 -35 -138
-60 -310 -65 -459 -9 -230 7 -240 124 -82 124 166 197 305 263 498 l46 135
129 0 130 0 3 -43 c8 -104 -70 -287 -214 -502 -46 -69 -84 -131 -84 -138 0 -7
20 -40 44 -75 115 -165 198 -333 240 -489 48 -176 72 -408 44 -436 -8 -8 -56
-12 -150 -12 -175 0 -178 2 -178 120 0 106 -25 281 -56 386 -26 93 -80 206
-114 242 -19 20 -23 21 -49 7 -43 -22 -121 -113 -149 -174 -29 -63 -28 -75 14
-373 15 -104 24 -191 20 -195 -4 -5 -64 -9 -132 -11 -152 -4 -167 2 -183 78
-25 114 -33 360 -28 785 6 512 24 713 73 808 l15 27 133 0 c99 0 135 -3 139
-12z m-980 -929 c14 -22 -18 -158 -46 -201 l-23 -33 -184 0 -185 0 1 51 c2 61
27 143 56 179 l20 25 175 -2 c147 -3 177 -6 186 -19z m4647 -1059 l0 -90
-4205 0 -4205 0 0 90 0 90 4205 0 4205 0 0 -90z m-5828 -750 c73 -21 92 -98
37 -152 -30 -30 -30 -31 -11 -52 11 -11 29 -40 41 -63 11 -23 25 -44 31 -48
24 -15 7 -26 -37 -23 -47 3 -48 4 -80 63 -37 70 -49 85 -68 85 -21 0 -21 -103
0 -120 25 -20 7 -30 -55 -30 -57 0 -87 14 -56 26 14 5 16 29 16 150 0 89 -4
144 -10 144 -5 0 -10 7 -10 15 0 12 16 15 83 15 45 0 99 -5 119 -10z m438 -30
c0 -33 -3 -40 -19 -40 -11 0 -22 9 -26 19 -6 19 -33 31 -72 31 -21 0 -23 -4
-23 -60 0 -57 1 -60 25 -60 13 0 28 7 33 17 6 10 16 14 26 10 24 -10 19 -90
-6 -95 -11 -2 -18 3 -18 11 0 15 -20 27 -46 27 -11 0 -14 -16 -14 -65 0 -61 2
-65 25 -71 30 -7 70 16 80 46 3 11 13 20 21 20 10 0 14 -13 14 -50 l0 -50
-119 0 c-119 0 -144 7 -116 30 23 19 22 285 -1 294 -40 15 6 26 117 26 l119 0
0 -40z m308 34 c30 -8 33 -74 3 -74 -10 0 -26 11 -35 25 -19 29 -56 33 -80 9
-32 -31 -20 -50 61 -103 52 -33 63 -46 69 -76 17 -94 -65 -145 -195 -119 -28
6 -31 10 -31 45 0 31 4 39 18 39 11 0 24 -11 30 -25 13 -29 52 -41 82 -25 16
9 20 19 18 43 -2 26 -13 38 -53 64 -64 42 -85 68 -85 105 0 41 17 67 53 83 33
15 106 19 145 9z m402 -39 c0 -38 -3 -45 -20 -45 -11 0 -20 6 -20 13 0 21 -37
50 -55 44 -22 -9 -22 -268 0 -287 27 -23 16 -30 -49 -30 -62 0 -92 12 -61 24
22 8 22 296 0 296 -17 0 -55 -35 -55 -50 0 -5 -9 -10 -20 -10 -17 0 -20 7 -20
38 0 21 3 42 7 45 3 4 71 7 150 7 l143 0 0 -45z m245 -12 c46 -161 77 -253 90
-263 25 -21 6 -30 -61 -30 -59 0 -79 9 -54 25 11 7 13 45 4 69 -5 12 -20 16
-59 16 -39 0 -54 -4 -59 -16 -9 -24 -7 -62 4 -69 23 -14 7 -25 -38 -25 -58 0
-66 6 -43 29 14 14 45 89 122 299 7 17 16 22 43 22 34 0 35 -2 51 -57z m295
54 c0 -2 -7 -17 -15 -34 -11 -21 -14 -58 -12 -135 2 -88 5 -109 21 -127 22
-24 58 -27 79 -7 27 27 32 266 6 282 -23 14 -4 24 46 24 59 0 63 -4 40 -34
-11 -15 -15 -49 -15 -134 0 -62 -5 -122 -11 -134 -24 -45 -126 -62 -189 -30
-47 23 -59 63 -58 190 0 64 -4 108 -11 115 -21 21 -10 27 54 27 36 0 65 -2 65
-3z m517 -23 c51 -38 39 -137 -18 -156 -9 -3 -6 -11 9 -26 12 -12 31 -42 43
-66 11 -24 27 -47 35 -50 28 -11 3 -26 -41 -26 l-44 0 -38 73 c-28 53 -43 72
-58 72 -18 0 -20 -6 -17 -55 2 -30 8 -59 13 -65 19 -19 7 -25 -56 -25 -65 0
-76 5 -52 28 8 9 13 56 16 138 2 101 0 129 -13 149 -9 13 -16 27 -16 31 0 3
47 5 105 2 86 -3 109 -7 132 -24z m394 -132 c26 -85 52 -159 58 -165 21 -21
10 -27 -52 -27 -69 0 -85 7 -60 25 12 9 14 20 9 49 l-7 37 -56 -3 c-52 -3 -57
-5 -66 -31 -7 -22 -5 -32 7 -46 22 -24 11 -31 -46 -31 -53 0 -57 4 -30 34 11
12 43 84 71 161 29 77 55 144 58 148 3 4 19 7 36 5 32 -3 32 -3 78 -156z m291
101 c19 -32 49 -84 67 -115 18 -32 34 -58 36 -58 2 0 4 40 4 89 0 61 -5 95
-14 107 -22 29 -18 34 30 34 33 0 45 -4 45 -15 0 -8 -4 -15 -10 -15 -6 0 -11
-64 -12 -157 l-3 -158 -30 0 c-32 0 -45 17 -130 165 l-40 70 -3 -103 c-2 -82
0 -104 12 -113 22 -16 9 -24 -41 -24 -43 0 -52 7 -33 26 15 15 16 282 2 296
-21 21 -13 28 37 28 48 0 48 0 83 -57z m562 41 c3 -9 6 -29 6 -45 0 -22 -5
-29 -20 -29 -12 0 -24 10 -29 24 -9 21 -29 36 -52 36 -5 0 -9 -64 -9 -145 0
-120 3 -147 15 -151 31 -12 1 -24 -61 -24 -65 0 -76 7 -49 30 12 10 15 39 15
146 0 73 -4 135 -8 138 -18 11 -52 -7 -58 -30 -4 -15 -14 -24 -25 -24 -16 0
-19 8 -19 45 l0 45 144 0 c122 0 145 -2 150 -16z m-6064 -61 c98 -33 139 -102
140 -234 0 -138 -41 -222 -129 -263 -39 -17 -65 -21 -166 -21 -105 0 -125 3
-162 22 -81 44 -118 111 -130 237 -11 117 28 206 108 247 79 40 238 46 339 12z
m8777 -5 c96 -36 142 -125 130 -254 -8 -88 -25 -136 -59 -179 -48 -57 -98 -77
-209 -83 -225 -11 -319 75 -319 290 0 118 31 177 115 220 80 41 241 44 342 6z"/>
<path d="M3883 5771 c-44 -28 -108 -112 -145 -189 -86 -186 -125 -522 -78
-675 39 -125 141 -184 305 -175 109 6 177 38 222 105 46 69 57 132 50 303 -9
250 -81 468 -192 588 -60 64 -108 77 -162 43z"/>
<path d="M7781 5732 c-126 -125 -201 -370 -201 -654 0 -146 18 -211 72 -267
52 -53 102 -73 198 -79 120 -7 187 14 249 76 57 58 71 99 78 228 15 270 -73
571 -203 701 -47 47 -57 53 -94 53 -37 0 -48 -6 -99 -58z"/>
<path d="M9085 5760 c-95 -76 -171 -236 -210 -446 -20 -105 -24 -332 -7 -390
20 -69 69 -132 126 -162 46 -25 61 -27 161 -27 99 0 116 3 160 26 56 28 109
90 125 147 30 101 20 331 -21 497 -55 216 -171 385 -264 385 -21 0 -46 -11
-70 -30z"/>
</g>
</svg>
